<svg viewBox="0 0 13 16" fill="none" xmlns="http://www.w3.org/2000/svg" class="wt-app-button-ic" data-size="sm"> <path d="M10.863 8.823c-.017-1.934 1.565-2.875 1.637-2.92-.896-1.321-2.284-1.502-2.772-1.516-1.166-.125-2.298.706-2.892.706-.606 0-1.52-.694-2.507-.674-1.268.02-2.455.764-3.106 1.918-1.344 2.355-.342 5.815.945 7.718.644.932 1.397 1.973 2.381 1.936.964-.04 1.324-.621 2.486-.621 1.152 0 1.49.62 2.495.598 1.034-.017 1.685-.937 2.306-1.877.744-1.068 1.043-2.12 1.055-2.175-.024-.008-2.008-.775-2.028-3.093ZM8.966 3.135c.518-.656.873-1.549.774-2.454-.75.033-1.688.525-2.228 1.166-.478.566-.905 1.492-.794 2.364.842.063 1.707-.43 2.248-1.076Z" fill="#fff"></path></svg>