<svg width="56" height="56" viewBox="0 0 56 56" fill="none" xmlns="http://www.w3.org/2000/svg">
<g clip-path="url(#clip0_2695_1712)">
<g clip-path="url(#clip1_2695_1712)">
<path fill-rule="evenodd" clip-rule="evenodd" d="M28 0C43.464 0 56 12.536 56 28C56 43.464 43.464 56 28 56C12.536 56 0 43.464 0 28C0 12.536 12.536 0 28 0Z" fill="#E3E5FF"/>
<path fill-rule="evenodd" clip-rule="evenodd" d="M15.8682 15.8681C16.4668 15.2695 17.2786 14.9333 18.1251 14.9333H27.1398C27.2553 14.9333 27.3699 14.9426 27.4825 14.961C27.5493 14.9429 27.6195 14.9333 27.692 14.9333C27.9889 14.9333 28.248 15.095 28.3861 15.3352C28.4788 15.4019 28.5665 15.4763 28.6482 15.5581L35.4329 22.3428C35.7454 22.6552 35.7454 23.1617 35.4329 23.4742C35.2166 23.6905 34.9073 23.757 34.6337 23.6738C34.5598 23.6963 34.4813 23.7085 34.4 23.7085H27.692C27.2502 23.7085 26.892 23.3503 26.892 22.9085V16.5333H18.1251C17.7029 16.5333 17.2981 16.701 16.9996 16.9995C16.7011 17.298 16.5333 17.7028 16.5333 18.125V37.2589C16.5333 37.6811 16.7011 38.0859 16.9996 38.3844C17.2981 38.6829 17.7029 38.8506 18.1251 38.8506H25.0667C25.5085 38.8506 25.8667 39.2088 25.8667 39.6506C25.8667 40.0925 25.5085 40.4506 25.0667 40.4506H18.1251C17.2786 40.4506 16.4668 40.1144 15.8682 39.5158C15.2696 38.9172 14.9333 38.1054 14.9333 37.2589V18.125C14.9333 17.2785 15.2696 16.4667 15.8682 15.8681ZM28.492 22.1085V17.6646L32.9359 22.1085H28.492ZM19.7328 28.2666C19.291 28.2666 18.9328 28.6248 18.9328 29.0666C18.9328 29.5084 19.291 29.8666 19.7328 29.8666H25.0662C25.508 29.8666 25.8662 29.5084 25.8662 29.0666C25.8662 28.6248 25.508 28.2666 25.0662 28.2666H19.7328ZM18.9333 34.3999C18.9333 33.9581 19.2915 33.5999 19.7333 33.5999H22.4C22.8418 33.5999 23.2 33.9581 23.2 34.3999C23.2 34.8418 22.8418 35.1999 22.4 35.1999H19.7333C19.2915 35.1999 18.9333 34.8418 18.9333 34.3999ZM19.7333 22.9333C19.2915 22.9333 18.9333 23.2914 18.9333 23.7333C18.9333 24.1751 19.2915 24.5333 19.7333 24.5333H21.0667H22.4C22.8418 24.5333 23.2 24.1751 23.2 23.7333C23.2 23.2914 22.8418 22.9333 22.4 22.9333H21.0667H19.7333Z" fill="black"/>
<circle cx="33.7333" cy="33.7334" r="7.33333" stroke="black" stroke-width="1.6" stroke-linecap="round" stroke-linejoin="round"/>
<path d="M37.8791 31.235L33.2327 35.8814C32.8612 36.2528 32.2576 36.2481 31.8919 35.871L29.5474 33.4526" stroke="black" stroke-width="1.52063" stroke-linecap="round" stroke-linejoin="round"/>
</g>
</g>
<defs>
<clipPath id="clip0_2695_1712">
<rect width="56" height="56" fill="white"/>
</clipPath>
<clipPath id="clip1_2695_1712">
<rect width="56" height="56" fill="white"/>
</clipPath>
</defs>
</svg>
