<svg width="56" height="56" viewBox="0 0 56 56" fill="none" xmlns="http://www.w3.org/2000/svg">
<g clip-path="url(#clip0_2695_1658)">
<g clip-path="url(#clip1_2695_1658)">
<path fill-rule="evenodd" clip-rule="evenodd" d="M28 0C43.464 0 56 12.536 56 28C56 43.464 43.464 56 28 56C12.536 56 0 43.464 0 28C0 12.536 12.536 0 28 0Z" fill="#E3E5FF"/>
<path d="M33.6875 21.3193C33.6876 21.2298 33.7052 21.1412 33.7392 21.0585C33.7732 20.9758 33.8229 20.9007 33.8856 20.8375C33.9483 20.7743 34.0228 20.7241 34.1046 20.69C34.1865 20.6558 34.2743 20.6383 34.3628 20.6384H35.8751C36.0538 20.6384 36.2251 20.7101 36.3515 20.8378C36.4778 20.9655 36.5488 21.1387 36.5488 21.3193C36.5488 21.5 36.4778 21.6732 36.3515 21.8009C36.2251 21.9286 36.0538 22.0003 35.8751 22.0003H34.3628C34.2743 22.0004 34.1865 21.9829 34.1046 21.9487C34.0228 21.9146 33.9483 21.8644 33.8856 21.8012C33.8229 21.738 33.7732 21.6629 33.7392 21.5802C33.7052 21.4975 33.6876 21.4089 33.6875 21.3193V21.3193ZM23.3121 21.3193C23.3122 21.2298 23.3297 21.1412 23.3637 21.0585C23.3977 20.9758 23.4475 20.9007 23.5102 20.8375C23.5729 20.7743 23.6473 20.7241 23.7292 20.69C23.8111 20.6558 23.8988 20.6383 23.9874 20.6384H25.4997C25.6784 20.6384 25.8497 20.7101 25.9761 20.8378C26.1024 20.9655 26.1734 21.1387 26.1734 21.3193C26.1734 21.5 26.1024 21.6732 25.9761 21.8009C25.8497 21.9286 25.6784 22.0003 25.4997 22.0003H23.9866C23.8079 22.0003 23.6364 21.9286 23.5099 21.8009C23.3835 21.6732 23.3123 21.5 23.3121 21.3193V21.3193ZM30.6062 16.8502C30.6001 17.0271 30.5264 17.1947 30.4005 17.3176C30.2746 17.4406 30.1063 17.5093 29.9313 17.5093C29.7562 17.5093 29.5879 17.4406 29.462 17.3176C29.3361 17.1947 29.2624 17.0271 29.2563 16.8502V15.3258C29.2624 15.1489 29.3361 14.9813 29.462 14.8584C29.5879 14.7354 29.7562 14.6667 29.9313 14.6667C30.1063 14.6667 30.2746 14.7354 30.4005 14.8584C30.5264 14.9813 30.6001 15.1489 30.6062 15.3258V16.8502ZM33.6659 16.5995C33.7283 16.5348 33.8028 16.4832 33.885 16.4478C33.9673 16.4124 34.0557 16.3939 34.1451 16.3932C34.2345 16.3926 34.3231 16.41 34.4058 16.4443C34.4886 16.4785 34.5637 16.5291 34.627 16.593C34.6902 16.6568 34.7403 16.7328 34.7743 16.8163C34.8083 16.8999 34.8255 16.9895 34.825 17.0799C34.8244 17.1702 34.8062 17.2596 34.7712 17.3427C34.7362 17.4259 34.6853 17.5012 34.6213 17.5644L33.5411 18.6537C33.4141 18.7792 33.2432 18.8491 33.0656 18.8482C32.888 18.8473 32.7179 18.7757 32.5921 18.6489C32.4663 18.5221 32.3951 18.3503 32.3937 18.1708C32.3924 17.9913 32.4611 17.8184 32.5849 17.6897L33.6659 16.5995ZM26.7943 18.8414C26.7052 18.842 26.6169 18.8247 26.5345 18.7905C26.4521 18.7564 26.3772 18.706 26.3142 18.6424L25.2396 17.5563C25.1123 17.4281 25.0406 17.2541 25.0402 17.0724C25.0398 16.8908 25.1108 16.7165 25.2376 16.5878C25.3644 16.4591 25.5366 16.3866 25.7163 16.3862C25.896 16.3858 26.0685 16.4576 26.1958 16.5858L27.2744 17.6784C27.369 17.7738 27.4334 17.8955 27.4594 18.0281C27.4854 18.1606 27.4717 18.2979 27.4203 18.4226C27.3688 18.5473 27.2818 18.6537 27.1703 18.7283C27.0589 18.8028 26.928 18.8422 26.7943 18.8414V18.8414Z" fill="#282F36"/>
<path d="M18.6832 26.6951C18.3259 26.6949 17.9832 26.8379 17.7301 27.0927C17.4771 27.3476 17.3344 27.6935 17.3333 28.0546V39.9714C17.3338 40.3329 17.4762 40.6794 17.7293 40.9348C17.9824 41.1902 18.3255 41.3335 18.6832 41.3333H22.5935C22.9355 41.3346 23.2652 41.2045 23.516 40.9694C23.7667 40.7343 23.9197 40.4117 23.9441 40.0668L24.781 40.5731C25.5789 41.0561 26.4915 41.3113 27.4215 41.3115H33.1273C33.8175 41.3185 34.5016 41.1808 35.1365 40.9071C35.7822 40.6872 36.3323 40.2473 36.6924 39.6626C37.0525 39.0779 37.2003 38.3848 37.1104 37.7021C37.5785 37.3066 37.9143 36.7746 38.0718 36.1789C38.2294 35.5832 38.201 34.9529 37.9906 34.3741C38.4424 33.8232 38.6822 33.1259 38.6659 32.4105C38.6363 31.8501 38.4437 31.3111 38.1122 30.8609C38.3192 30.3799 38.3709 29.8451 38.2599 29.3327C38.1488 28.8203 37.8807 28.3563 37.4937 28.0069C37.4403 27.9529 37.3819 27.9031 37.3184 27.8572C37.0102 27.6265 36.6548 27.4685 36.2783 27.3946H36.2487C34.6813 27.0691 33.0814 26.932 31.4822 26.9862C31.4153 25.9958 31.5761 25.0032 31.9519 24.0861C32.2038 23.4985 32.3227 22.8614 32.3 22.2215C32.2773 21.5815 32.1135 20.9547 31.8207 20.3869C31.5808 20.0066 31.2613 19.6841 30.8847 19.4423C30.5081 19.2004 30.0836 19.0449 29.6411 18.9869H29.5611C29.2513 18.9815 28.9482 19.0779 28.6974 19.2617C28.4466 19.4455 28.2616 19.7067 28.1704 20.006C28.1609 20.038 28.1537 20.0707 28.1488 20.1038L27.9464 21.5741C27.8855 22.0159 27.7581 22.4458 27.5687 22.8487L25.594 27.0186C25.4463 27.3626 25.219 27.6659 24.9314 27.9029C24.6438 28.1398 24.3041 28.3036 23.9409 28.3805V28.057C23.9405 27.6959 23.7984 27.3498 23.5458 27.0944C23.2932 26.8391 22.9507 26.6955 22.5935 26.6951H18.6832ZM18.6832 39.9738V28.0546H22.5935V39.9714L18.6832 39.9738ZM24.0841 29.7505C24.6821 29.6451 25.2447 29.3907 25.7209 29.0103C26.1972 28.6298 26.5721 28.1354 26.8118 27.5717L28.7641 23.4132C29.0125 22.8845 29.1793 22.3205 29.2586 21.7407L29.4667 20.3658C29.4764 20.3562 29.4886 20.3494 29.5019 20.3464C29.7373 20.3839 29.9624 20.4706 30.1629 20.601C30.3633 20.7313 30.5347 20.9024 30.6661 21.1034C30.8461 21.5051 30.9392 21.941 30.9392 22.382C30.9392 22.823 30.8461 23.259 30.6661 23.6607C30.188 24.8421 30.0204 26.1284 30.1796 27.3946C30.2416 27.6687 30.3944 27.9132 30.6127 28.0875C30.831 28.2618 31.1016 28.3555 31.3798 28.353C32.9196 28.2954 34.4608 28.4225 35.971 28.7315H35.9958C36.1757 28.7644 36.3462 28.8371 36.4951 28.9442L36.5815 29.0178C36.7911 29.2191 36.9224 29.4897 36.9518 29.7804C36.9811 30.0712 36.9065 30.3629 36.7415 30.6029C36.6552 30.7391 36.6197 30.902 36.6416 31.0623C36.6634 31.2225 36.7412 31.3697 36.8608 31.4772C37.1231 31.7454 37.2844 32.0978 37.3168 32.4735C37.309 32.7245 37.2511 32.9713 37.1468 33.1992C37.0424 33.4271 36.8937 33.6314 36.7095 33.7999C36.6085 33.9075 36.5451 34.0457 36.5291 34.1932C36.513 34.3407 36.5452 34.4894 36.6207 34.6167C36.8296 35.0084 36.8785 35.4671 36.7569 35.8947C36.6353 36.3223 36.3529 36.6848 35.9702 36.9046C35.8547 36.9915 35.7693 37.1131 35.7262 37.2519C35.6831 37.3907 35.6845 37.5398 35.7302 37.6778C35.803 37.8954 36.0894 39.0122 34.61 39.6689C34.1399 39.867 33.634 39.9634 33.1249 39.952H27.4087C26.7246 39.9512 26.0536 39.7631 25.4668 39.4077L23.9465 38.4874V29.7683L24.0841 29.7505ZM20.6379 38.6839C20.4754 38.6834 20.3167 38.6342 20.1818 38.5426C20.0469 38.4509 19.942 38.3209 19.8802 38.1689C19.8184 38.017 19.8027 37.8499 19.8348 37.6889C19.867 37.5279 19.9457 37.3801 20.061 37.2643C20.1762 37.1485 20.3229 37.0698 20.4824 37.0382C20.6418 37.0066 20.807 37.0236 20.957 37.0869C21.107 37.1502 21.235 37.257 21.3249 37.3939C21.4148 37.5307 21.4625 37.6915 21.4621 37.8557C21.4612 38.0759 21.374 38.2868 21.2194 38.4421C21.0649 38.5974 20.8558 38.6843 20.6379 38.6839V38.6839Z" fill="#282F36"/>
</g>
</g>
<defs>
<clipPath id="clip0_2695_1658">
<rect width="56" height="56" fill="white"/>
</clipPath>
<clipPath id="clip1_2695_1658">
<rect width="56" height="56" fill="white"/>
</clipPath>
</defs>
</svg>
