<svg width="56" height="56" viewBox="0 0 56 56" fill="none" xmlns="http://www.w3.org/2000/svg">
<g clip-path="url(#clip0_2695_1641)">
<g clip-path="url(#clip1_2695_1641)">
<path fill-rule="evenodd" clip-rule="evenodd" d="M28 0C43.464 0 56 12.536 56 28C56 43.464 43.464 56 28 56C12.536 56 0 43.464 0 28C0 12.536 12.536 0 28 0Z" fill="#E3E5FF"/>
<path fill-rule="evenodd" clip-rule="evenodd" d="M31.5918 37C31.5918 35.8954 32.4872 35 33.5918 35C34.6964 35 35.5918 35.8954 35.5918 37C35.5918 38.1046 34.6964 39 33.5918 39C32.4872 39 31.5918 38.1046 31.5918 37Z" fill="black"/>
<path fill-rule="evenodd" clip-rule="evenodd" d="M21.9551 37C21.9551 35.8954 22.8505 35 23.9551 35C25.0596 35 25.9551 35.8954 25.9551 37C25.9551 38.1046 25.0596 39 23.9551 39C22.8505 39 21.9551 38.1046 21.9551 37Z" fill="black"/>
<path fill-rule="evenodd" clip-rule="evenodd" d="M15.5918 20C15.5918 19.4477 16.0395 19 16.5918 19H20.2282C20.7013 19 21.1096 19.3315 21.2068 19.7945L21.9498 23.3332H36.5918C36.8914 23.3332 37.1752 23.4676 37.3652 23.6993C37.5551 23.931 37.6311 24.2356 37.5724 24.5294L36.1163 31.8084C35.9828 32.4489 35.6194 33.0138 35.1028 33.4102C34.5899 33.8038 33.9559 34.0092 33.3109 33.9997H24.4909C23.8459 34.0092 23.2118 33.8038 22.6989 33.4102C22.1826 33.014 21.8193 32.4493 21.6857 31.8091C21.6857 31.8089 21.6858 31.8094 21.6857 31.8091L20.168 24.5802C20.1612 24.5535 20.1555 24.5264 20.1509 24.4989L19.4163 21H16.5918C16.0395 21 15.5918 20.5523 15.5918 20ZM22.3697 25.3332L23.6435 31.4004C23.6763 31.5579 23.7683 31.7098 23.9166 31.8236C24.0658 31.9381 24.2597 32.0036 24.4644 31.9998L24.4827 31.9997H33.3191L33.3373 31.9998C33.5421 32.0036 33.736 31.9381 33.8852 31.8236C34.0325 31.7105 34.1243 31.5598 34.1577 31.4034L35.3719 25.3332H22.3697Z" fill="black"/>
<path d="M30.4769 31.817L32.578 40.8216C32.9514 42.4215 34.8176 43.1503 36.1282 42.2495C36.4444 42.0322 36.6178 41.73 36.7179 41.517L38.6314 37.4459L42.7025 35.5324C42.9154 35.4323 43.2178 35.2589 43.4351 34.9425C44.3228 33.65 43.6285 31.8114 42.0611 31.4058L33.2383 29.123C31.5819 28.6944 30.0877 30.1494 30.4769 31.817Z" fill="black" stroke="#E3E5FF" stroke-width="1.56066" stroke-linecap="round" stroke-linejoin="round"/>
</g>
</g>
<defs>
<clipPath id="clip0_2695_1641">
<rect width="56" height="56" fill="white"/>
</clipPath>
<clipPath id="clip1_2695_1641">
<rect width="56" height="56" fill="white"/>
</clipPath>
</defs>
</svg>
