<svg viewBox="0 0 24 24" fill="none" xmlns="http://www.w3.org/2000/svg">
<path d="M10.0212 22.7341C11.4616 22.2256 12.7546 21.4272 14.0489 20.6297C15.2875 19.8589 16.4621 18.9938 17.5619 18.0423C20.8482 15.2296 24.3786 10.3337 22.9058 5.70148C21.8692 2.43108 18.6465 0.75 15.3788 0.75C11.1233 0.75 6.83787 3.02679 3.64784 5.76795C2.03859 7.29076 -0.783268 11.1009 1.78639 13.0261C3.83661 14.5429 6.74492 13.158 8.62932 12.0242C10.7691 10.5629 12.985 9.04644 15.4497 8.21004C16.6193 7.78305 18.2621 7.75617 18.8902 9.05622C19.3724 10.017 19.2578 11.5354 18.6012 12.9242C17.7052 14.8164 16.1667 16.6811 14.0304 18.468C12.5933 19.7055 10.9314 20.8176 9.12198 21.4239C7.03307 21.9715 8.304 20.1712 8.304 20.1712C9.03269 19.3493 9.88225 18.6459 10.6642 17.8773C11.0278 17.5205 11.5278 17.0317 11.4978 16.3286C11.455 15.3752 10.4354 14.7928 9.51693 14.7928C7.96313 14.7928 6.57513 16.1527 5.77844 17.3719C5.22296 18.235 4.05314 20.4345 5.19233 22.1932C5.96522 23.3892 7.65157 23.5708 10.0212 22.7341Z" fill="#EB4F4F"/>
</svg>
